<svg xmlns="http://www.w3.org/2000/svg" xmlns:xlink="http://www.w3.org/1999/xlink" width="426" height="129" viewBox="0 0 426 129">
    <defs>
        <path id="a" d="M.97.098h43.032V66H.97z"/>
    </defs>
    <g fill="none" fill-rule="evenodd">
        <path fill="#FFF" d="M162.051 48.85c-3.666.117-6.474 1.514-8.423 4.19-1.95 2.677-2.924 7.303-2.924 13.878 0 2.154.203 3.653.612 4.495.406.845.61 1.325.61 1.441-3.143 0-5.485-.654-7.026-1.964-1.543-1.31-2.314-3.477-2.314-6.503 0-4.13 1.018-7.899 3.056-11.304 2.036-3.404 5.28-6.153 9.732-8.248 4.451-2.095 10.111-3.142 16.977-3.142 1.396 0 3.26.145 5.587.436 4.19.408 7.157.611 8.903.611 3.083 0 5.702-.349 7.856-1.047-.175.523-.496 1.674-.96 3.447-.467 1.776-1.296 3.29-2.489 4.54-1.193 1.251-2.807 2.08-4.843 2.487-3.435 0-7.507-.552-12.22-1.659l-3.667 17.37h12.744l-1.397 6.46h-12.744l-7.07 32.82h-12.568l12.568-58.308z"/>
        <path fill="#FFF" d="M183.743 105.063c-1.718-1.746-2.575-4.364-2.575-7.855 0-1.455.233-3.347.698-5.674l9.34-43.73 12.918-1.747-10.038 47.135a10.794 10.794 0 0 0-.35 2.793c0 1.165.277 1.994.83 2.488.553.495 1.469.741 2.749.741 1.688 0 3.259-.712 4.714-2.138 1.454-1.425 2.5-3.274 3.143-5.542h3.666c-2.154 6.284-4.918 10.548-8.292 12.787-3.376 2.241-6.722 3.36-10.038 3.36-2.793 0-5.05-.873-6.765-2.618"/>
        <path fill="#FFF" d="M225.64 97.164c1.424-1.367 2.4-3.243 2.923-5.63l4.19-19.727c0-.755-.292-1.497-.873-2.226-.583-.727-1.484-1.091-2.706-1.091-2.328 0-4.423 1.353-6.285 4.059-1.862 2.706-3.316 5.966-4.364 9.776-1.047 3.812-1.572 7.172-1.572 10.08 0 2.912.422 4.774 1.266 5.588.844.816 1.877 1.222 3.1 1.222 1.453 0 2.893-.683 4.32-2.051m-18.286 7.113c-2.21-2.268-3.318-5.817-3.318-10.648 0-4.306.86-8.83 2.576-13.573 1.716-4.743 4.276-8.758 7.68-12.046 3.405-3.286 7.463-4.932 12.177-4.932 2.386 0 4.16.408 5.324 1.223 1.164.815 1.746 1.89 1.746 3.229v.61l.96-4.625h12.57l-6.285 29.677a10.794 10.794 0 0 0-.349 2.793c0 2.503 1.192 3.754 3.58 3.754 1.627 0 3.04-.756 4.232-2.27 1.192-1.512 2.138-3.492 2.836-5.935h3.666c-2.153 6.284-4.815 10.548-7.986 12.787-3.172 2.24-6.358 3.36-9.558 3.36-2.444 0-4.408-.682-5.89-2.05-1.486-1.367-2.373-3.361-2.663-5.98-1.689 2.387-3.566 4.322-5.63 5.805-2.067 1.484-4.526 2.226-7.376 2.226-3.318 0-6.082-1.135-8.292-3.405"/>
        <path fill="#FFF" d="M296.34 104.844c-1.658-1.89-2.487-4.233-2.487-7.026 0-1.222.144-2.604.436-4.147.29-1.54.596-3.04.916-4.495.32-1.454.537-2.385.656-2.793.464-2.036.901-4.044 1.308-6.022.406-1.978.611-3.579.611-4.8 0-2.969-1.047-4.453-3.142-4.453-1.514 0-2.852.742-4.015 2.226-1.165 1.484-2.095 3.42-2.794 5.804l-5.934 28.02h-12.57l6.371-30.115a8.936 8.936 0 0 0 .263-2.18c0-2.562-.873-3.842-2.619-3.842-1.63 0-3.04.742-4.233 2.225-1.194 1.485-2.139 3.45-2.837 5.892l-5.936 28.02h-12.568l9.252-43.644h12.57l-.96 4.54c2.967-3.317 6.515-4.977 10.648-4.977 5.12 0 8.118 2.503 8.99 7.507 3.2-4.945 7.245-7.419 12.133-7.419 2.967 0 5.325.816 7.07 2.444 1.746 1.63 2.62 4.102 2.62 7.42 0 1.688-.206 3.564-.612 5.63-.408 2.066-.99 4.581-1.746 7.55a151.665 151.665 0 0 0-1.266 5.281c-.379 1.716-.567 3.07-.567 4.058 0 1.165.261 2.067.786 2.706.523.642 1.425.96 2.706.96 1.745 0 3.141-.624 4.19-1.876 1.046-1.25 2.094-3.186 3.142-5.805h3.666c-2.154 6.402-4.642 10.693-7.463 12.874-2.823 2.183-5.748 3.274-8.773 3.274-3.55 0-6.154-.945-7.812-2.837"/>
        <path fill="#FFF" d="M326.41 56.794c-1.34-1.338-2.007-2.968-2.007-4.888 0-1.921.668-3.564 2.007-4.932 1.338-1.367 2.968-2.051 4.889-2.051 1.92 0 3.563.684 4.93 2.05 1.368 1.369 2.052 3.012 2.052 4.933 0 1.92-.684 3.55-2.051 4.888-1.368 1.339-3.011 2.008-4.931 2.008-1.921 0-3.551-.67-4.89-2.008m-7.811 48.27c-1.717-1.747-2.575-4.365-2.575-7.856 0-1.454.234-3.347.699-5.674l5.935-28.02h12.569l-6.285 29.678a10.838 10.838 0 0 0-.348 2.793c0 1.165.275 1.995.829 2.489.552.495 1.468.74 2.749.74 1.687 0 3.259-.711 4.714-2.138 1.454-1.425 2.5-3.273 3.142-5.542h3.666c-2.153 6.284-4.918 10.548-8.292 12.787-3.376 2.242-6.721 3.36-10.038 3.36-2.793 0-5.05-.872-6.765-2.617"/>
        <path fill="#FFF" d="M363.725 104.844c-1.658-1.89-2.487-4.233-2.487-7.026 0-1.222.144-2.604.436-4.147.29-1.54.596-3.04.916-4.495.32-1.454.537-2.385.655-2.793.465-2.036.902-4.044 1.31-6.022.405-1.978.61-3.579.61-4.8 0-2.969-1.047-4.453-3.142-4.453-1.514 0-2.852.742-4.015 2.226-1.165 1.484-2.095 3.42-2.794 5.804l-5.935 28.02H336.71l9.252-43.644h12.57l-.96 4.54c2.91-3.259 6.312-4.889 10.212-4.889 2.967 0 5.324.816 7.07 2.444 1.746 1.63 2.618 4.102 2.618 7.42 0 1.688-.204 3.564-.61 5.63-.408 2.066-.99 4.581-1.746 7.55a151.665 151.665 0 0 0-1.266 5.281c-.379 1.716-.567 3.07-.567 4.058 0 1.165.261 2.067.786 2.706.523.642 1.425.96 2.705.96 1.746 0 3.142-.624 4.19-1.876 1.047-1.25 2.095-3.186 3.142-5.805h3.666c-2.153 6.402-4.64 10.693-7.463 12.874-2.823 2.183-5.747 3.274-8.772 3.274-3.55 0-6.154-.945-7.812-2.837"/>
        <g transform="translate(382 62.979)">
            <mask id="b" fill="#fff">
                <use xlink:href="#a"/>
            </mask>
            <path fill="#FFF" d="M22.311 34.533c1.366-1.135 2.343-2.749 2.924-4.845l4.451-21.123c-.465-2.036-1.657-3.054-3.578-3.054-2.328 0-4.422 1.352-6.285 4.058-1.863 2.706-3.317 5.966-4.364 9.776-1.046 3.812-1.57 7.172-1.57 10.082 0 2.911.42 4.772 1.264 5.586.845.816 1.877 1.222 3.1 1.222 1.337 0 2.69-.567 4.058-1.702m-3.884 22.084c.93-1.077 1.659-2.809 2.183-5.193l1.047-5.15c-3.085 1.047-5.47 2.27-7.158 3.665-1.688 1.397-2.53 3.2-2.53 5.412 0 .7.349 1.353 1.048 1.964a3.585 3.585 0 0 0 2.442.916c1.047 0 2.037-.538 2.968-1.614m-8.16 6.721c-2.067-1.776-3.1-4.03-3.1-6.765 0-2.56.64-4.656 1.92-6.284 1.28-1.63 2.938-2.91 4.976-3.84 2.036-.933 4.77-1.92 8.204-2.969l.785-3.666c-3.026 3.26-6.517 4.888-10.473 4.888-3.317 0-6.082-1.135-8.292-3.404S.97 35.48.97 30.65c0-4.305.86-8.83 2.575-13.573 1.716-4.742 4.277-8.758 7.681-12.046C14.63 1.744 18.69.098 23.402.098c2.386 0 4.16.41 5.325 1.223 1.163.816 1.745 1.892 1.745 3.23v.173l.873-4.189h12.657l-10.65 50.626c-1.163 5.587-3.215 9.456-6.152 11.61-2.94 2.152-6.184 3.23-9.733 3.23-2.735 0-5.135-.889-7.2-2.663" mask="url(#b)"/>
        </g>
        <path fill="#FF78A1" d="M220.366 49.583V23.502H230.8v2.005h-8.031v22.072h8.03v2.004zM235.895 36.438v6.201c.87.224 1.672.336 2.405.336 1.456 0 2.683-.57 3.679-1.715.995-1.143 1.493-2.708 1.493-4.693 0-1.44-.271-2.525-.814-3.249-.543-.726-1.16-1.088-1.85-1.088-.75 0-1.575.38-2.475 1.14-.902.76-1.714 1.782-2.438 3.068zm0-2.86c.741-1.209 1.625-2.119 2.65-2.73 1.027-.613 1.97-.92 2.832-.92 1.207 0 2.293.522 3.259 1.565.965 1.043 1.448 2.625 1.448 4.746 0 1.672-.321 3.166-.963 4.48-.642 1.315-1.498 2.354-2.567 3.116-1.069.763-2.392 1.145-3.97 1.145-.448 0-1.137-.048-2.069-.143a20.62 20.62 0 0 0-.62-.064v5.611h-2.405V30.33h2.405v3.247zM253.222 25.112c0-.541.184-.944.554-1.211.37-.266.717-.4 1.043-.4.335 0 .686.134 1.055.4.37.267.554.67.554 1.21 0 .533-.185.933-.554 1.198-.369.267-.72.4-1.055.4-.326 0-.674-.133-1.043-.4-.37-.265-.554-.665-.554-1.197zm.388 19.66V32.335h-4.009V30.33h6.414v12.438h4.021v2.005h-6.426zM265.454 44.773V30.33h2.405v3.154c.69-1.11 1.522-1.982 2.496-2.61.974-.63 1.948-.946 2.922-.946a4.19 4.19 0 0 1 2.327.68c.7.452 1.188 1.045 1.468 1.777.28.733.42 2.172.42 4.32v8.068h-2.404v-8.366c0-1.388-.068-2.304-.2-2.748a2.163 2.163 0 0 0-.738-1.093 1.844 1.844 0 0 0-1.17-.427c-.845 0-1.753.402-2.722 1.203-.97.802-1.77 1.806-2.4 3.013v8.418h-2.404zM291.004 38.665v-6.201c-.854-.225-1.649-.337-2.383-.337-1.485 0-2.722.574-3.71 1.722-.99 1.148-1.484 2.71-1.484 4.686 0 1.433.27 2.514.81 3.243.54.73 1.155 1.094 1.845 1.094.751 0 1.58-.38 2.487-1.14.907-.758 1.718-1.781 2.435-3.067zm0 2.86c-.733 1.208-1.616 2.119-2.647 2.73-1.032.613-1.979.919-2.842.919-1.208 0-2.294-.522-3.256-1.565-.963-1.043-1.444-2.625-1.444-4.745 0-1.673.32-3.166.958-4.48.638-1.315 1.493-2.354 2.563-3.116 1.07-.764 2.395-1.145 3.975-1.145.457 0 1.146.047 2.066.142.138.017.344.039.62.065h2.412v10.215c0 2.43-.03 3.916-.093 4.454a12.139 12.139 0 0 1-.309 1.636c-.344 1.285-1.13 2.298-2.36 3.039-1.23.74-2.717 1.112-4.46 1.112-1.752 0-3.526-.448-5.32-1.345V47.01c.681.466 1.521.878 2.518 1.235.997.358 1.962.536 2.893.536.734 0 1.43-.116 2.085-.348.656-.234 1.187-.57 1.592-1.01.406-.44.683-.95.83-1.532.146-.582.22-1.356.22-2.322v-2.043zM306.536 23.502v26.08H296.1V47.58h8.03V25.507h-8.03v-2.005zM114.57 55.74s-8.877-15.82-23.232-15.224c-12.25.51-11.71 21.57-21.938 18.95-10.23-2.622 6.956-31.84-6.178-47.19l-6.972 28.24s3.546 4.393 2.296 13.486c-1.25 9.092 10.042 18.76 17.875 11.717 9.072-8.155 14.25-24.042 21.114-11.8l17.036 1.821z"/>
        <path stroke="#CA3457" stroke-linecap="round" stroke-width="3" d="M36.658 40.022L31.01 78.908M31.183 81.149l7.872 38.498"/>
        <path fill="#FF78A1" d="M110.242 51.348c6.546 4.342 11.924 17.228 5.563 26.815-8.325 12.551-19.63 4.378-19.63 4.378 12.18-5.839 8.01-14.443 8.01-14.443v-.002a9.11 9.11 0 0 1-4.08-1.47 9.168 9.168 0 0 1 10.137-15.278"/>
        <path fill="#EB5E80" d="M97.535 53.92a9.129 9.129 0 0 1 5.628-3.87c-7.45 9.835-1.951 16.644 6.356 20.386 4.203 1.894 4.859 6.163 4.21 10.374-8.008 8.62-17.554 1.732-17.554 1.732 12.18-5.84 8.01-14.444 8.01-14.444v-.001a9.133 9.133 0 0 1-4.08-1.47 9.168 9.168 0 0 1-2.57-12.707"/>
        <path fill="#504C75" d="M96.175 82.541c9.289-4.453 9.068-10.509 8.44-13.136 3.067-2.52 3.138-6.686 3.138-6.686 4.576 3.843 8.014 1.358 9.845-.82 1.652 5.172 1.579 11.182-1.793 16.265-8.325 12.55-19.63 4.377-19.63 4.377"/>
        <path fill="#FFF" d="M104.707 73.342c-.004.027-.012.055-.017.083a9.448 9.448 0 0 0-.075-4.02c3.068-2.521 3.138-6.686 3.138-6.686 4.576 3.844 8.014 1.358 9.846-.82 0 0-1.949 13.538-12.892 11.443"/>
        <path fill="#504C75" d="M115.805 78.164c-8.326 12.55-19.63 4.377-19.63 4.377 5.944-2.85 7.992-6.355 8.532-9.2 10.943 2.096 12.89-11.442 12.89-11.442 1.652 5.172 1.58 11.182-1.792 16.265"/>
        <path fill="#FFF" d="M104.174 57.538a4.21 4.21 0 1 0 7.017 4.654 4.21 4.21 0 0 0-7.017-4.654"/>
        <path fill="#FF9205" d="M104.721 60.246a2.985 2.985 0 1 0 5.921-.761 2.985 2.985 0 0 0-5.92.76"/>
        <path fill="#181727" d="M105.713 60.118a1.985 1.985 0 1 0 3.938-.506 1.985 1.985 0 0 0-3.938.506"/>
        <path fill="#FFF" d="M105.956 58.814a.982.982 0 1 0 1.947-.25.982.982 0 0 0-1.947.25"/>
        <path fill="#FF78A1" d="M1 24.432S26.936 42.97 42.083 42.97c14.833 0 24.743-5.876 24.743-18.537 0-12.662-10.299-22.926-25.447-22.926C22.892 1.506 1 24.432 1 24.432"/>
        <path fill="#FF78A1" d="M1 24.432S26.936 42.97 42.083 42.97c14.833 0 24.743-5.876 24.743-18.537 0-12.662-10.299-22.926-25.447-22.926C22.892 1.506 1 24.432 1 24.432"/>
        <path fill="#E64C72" d="M9.313 27.6s25.02 6.805 37.488 3.252c12.21-3.479 19.203-9.888 16.694-18.69C60.987 3.357 50.478-1.364 38.01 2.188 22.79 6.525 9.311 27.6 9.311 27.6"/>
        <path fill="#EB5E80" d="M11.5 24.453c4.412-6.04 14.956-18.972 26.508-22.264 12.47-3.552 22.98 1.17 25.487 9.972.16.558.279 1.105.363 1.645-2.438 3.741-10.63 14.136-26.668 14.637l8.39-8.077s-7.686 3.642-13.605 7.277c0 0-6.186.488-10.087-.762 0 0 4.766-8.688 13.513-13.893 0 0-10.396 4.48-16.628 12.622 0 0-3.69-.1-7.272-1.157"/>
        <path fill="#FF9EC3" d="M38.008 2.19c11.666-3.324 21.616.595 24.903 8.323-2.7 3.445-7.989 8.952-16.03 12.044l4.051-7.73s-8.409 2.395-15.194 5.705l-3.86-.821s1.413-3.621 8.782-9.322c0 0-8.26.88-16.464 6.497l-4.945-1.761c5.12-5.4 11.752-10.94 18.757-12.935"/>
        <path fill="#CA3457" d="M27.562 80.532a3.447 3.447 0 1 0 6.893 0 3.447 3.447 0 0 0-6.893 0"/>
        <path fill="#E64C72" d="M30.097 78.826c-.356.563.043 1.455.89 1.992.85.536 1.826.515 2.183-.047.356-.563-.043-1.455-.892-1.992-.848-.537-1.825-.516-2.181.047"/>
        <path fill="#CA3457" d="M35.12 124.314s.38-11.686 23.77 0H35.12z"/>
        <path stroke="#CA3457" stroke-linecap="round" stroke-width="3" d="M32.71 40.022L4.135 66.994M4.58 67.677l5.813 38.862"/>
        <path fill="#CA3457" d="M1.747 66.994a3.447 3.447 0 1 0 6.893 0 3.447 3.447 0 0 0-6.893 0"/>
        <path fill="#E64C72" d="M4.282 65.288c-.356.563.043 1.455.892 1.991.848.537 1.824.516 2.18-.047.357-.563-.042-1.454-.891-1.99-.848-.538-1.825-.517-2.181.046"/>
        <path fill="#CA3457" d="M8.923 106.9s1.788-11.554 23.596 2.866L8.923 106.9z"/>
        <path fill="#EB5E80" d="M63.741 34.806c-4.024 5.53-11.737 8.163-21.658 8.163C26.935 42.97 1 24.432 1 24.432S33.435 46.68 63.741 34.806"/>
    </g>
</svg>
