<svg xmlns="http://www.w3.org/2000/svg" xmlns:xlink="http://www.w3.org/1999/xlink" width="284" height="106" viewBox="0 0 284 106">
    <defs>
        <path id="a" d="M.384.098h43.031V66H.385z"/>
    </defs>
    <g fill="none" fill-rule="evenodd">
        <path fill="#FFF" d="M19.465 25.35c-3.666.116-6.474 1.513-8.423 4.188-1.95 2.678-2.924 7.304-2.924 13.88 0 2.153.203 3.652.612 4.494.406.845.61 1.325.61 1.441-3.143 0-5.485-.654-7.026-1.964C.771 46.08 0 43.912 0 40.886c0-4.13 1.018-7.899 3.056-11.304 2.036-3.404 5.28-6.153 9.732-8.248 4.451-2.095 10.111-3.142 16.977-3.142 1.396 0 3.259.145 5.587.436 4.189.408 7.157.611 8.903.611 3.083 0 5.702-.349 7.856-1.047-.175.523-.496 1.674-.96 3.447-.467 1.776-1.296 3.29-2.489 4.54-1.193 1.251-2.807 2.08-4.843 2.487-3.435 0-7.507-.552-12.221-1.659l-3.666 17.37h12.744l-1.397 6.46H26.535l-7.07 32.82H6.897L19.465 25.35z"/>
        <path fill="#FFF" d="M41.156 81.562c-1.718-1.746-2.575-4.364-2.575-7.855 0-1.455.233-3.347.698-5.674l9.34-43.73 12.918-1.747L51.5 69.691a10.794 10.794 0 0 0-.349 2.793c0 1.165.276 1.994.83 2.488.552.495 1.468.741 2.748.741 1.688 0 3.26-.712 4.714-2.138 1.454-1.425 2.501-3.274 3.143-5.542h3.666c-2.154 6.284-4.918 10.548-8.292 12.787-3.376 2.241-6.722 3.36-10.038 3.36-2.793 0-5.049-.873-6.765-2.618"/>
        <path fill="#FFF" d="M83.053 73.663c1.425-1.367 2.4-3.243 2.924-5.63l4.189-19.727c0-.755-.291-1.497-.872-2.226-.583-.727-1.484-1.091-2.706-1.091-2.328 0-4.423 1.353-6.285 4.059-1.862 2.706-3.316 5.966-4.364 9.776-1.047 3.812-1.572 7.172-1.572 10.08 0 2.912.422 4.774 1.266 5.588.844.816 1.877 1.222 3.1 1.222 1.453 0 2.893-.683 4.32-2.051m-18.286 7.113c-2.211-2.268-3.318-5.817-3.318-10.648 0-4.306.86-8.83 2.576-13.573 1.716-4.743 4.276-8.758 7.68-12.046 3.405-3.286 7.463-4.932 12.177-4.932 2.386 0 4.16.408 5.324 1.223 1.164.815 1.746 1.89 1.746 3.229v.61l.96-4.625h12.57L98.197 69.69a10.794 10.794 0 0 0-.35 2.793c0 2.503 1.193 3.754 3.58 3.754 1.628 0 3.04-.756 4.233-2.27 1.192-1.512 2.138-3.492 2.836-5.935h3.666c-2.153 6.284-4.815 10.548-7.986 12.787-3.172 2.24-6.358 3.36-9.558 3.36-2.444 0-4.408-.682-5.891-2.05-1.485-1.367-2.372-3.361-2.662-5.98-1.69 2.387-3.566 4.322-5.631 5.805-2.066 1.484-4.525 2.226-7.375 2.226-3.318 0-6.082-1.135-8.292-3.405"/>
        <path fill="#FFF" d="M153.754 81.343c-1.658-1.89-2.487-4.233-2.487-7.026 0-1.222.144-2.604.436-4.147.29-1.54.596-3.04.916-4.495.32-1.454.537-2.385.656-2.793.464-2.036.901-4.044 1.308-6.022.406-1.978.611-3.579.611-4.8 0-2.969-1.047-4.453-3.142-4.453-1.514 0-2.852.742-4.015 2.226-1.165 1.484-2.095 3.42-2.794 5.804l-5.934 28.02h-12.57l6.371-30.115a8.936 8.936 0 0 0 .263-2.18c0-2.562-.873-3.842-2.619-3.842-1.63 0-3.04.742-4.233 2.225-1.194 1.485-2.139 3.45-2.837 5.892l-5.936 28.02H105.18l9.252-43.644h12.57l-.96 4.54c2.967-3.317 6.515-4.977 10.648-4.977 5.12 0 8.118 2.503 8.99 7.507 3.2-4.945 7.245-7.419 12.133-7.419 2.967 0 5.325.816 7.07 2.444 1.746 1.63 2.62 4.102 2.62 7.42 0 1.688-.206 3.564-.612 5.63-.408 2.066-.99 4.581-1.746 7.55a151.665 151.665 0 0 0-1.266 5.281c-.379 1.716-.567 3.07-.567 4.058 0 1.165.261 2.067.786 2.706.523.642 1.425.96 2.706.96 1.745 0 3.141-.624 4.19-1.876 1.046-1.25 2.094-3.186 3.142-5.805h3.666c-2.154 6.402-4.642 10.693-7.463 12.874-2.823 2.183-5.748 3.274-8.773 3.274-3.55 0-6.154-.945-7.812-2.837"/>
        <path fill="#FFF" d="M183.823 33.293c-1.339-1.338-2.007-2.968-2.007-4.888 0-1.921.668-3.564 2.007-4.932 1.338-1.367 2.968-2.051 4.89-2.051 1.92 0 3.562.684 4.93 2.05 1.367 1.369 2.051 3.012 2.051 4.933 0 1.92-.684 3.55-2.05 4.888-1.369 1.339-3.012 2.008-4.932 2.008-1.92 0-3.55-.67-4.889-2.008m-7.812 48.27c-1.717-1.747-2.575-4.365-2.575-7.856 0-1.454.234-3.347.7-5.674l5.934-28.02h12.57l-6.286 29.678a10.838 10.838 0 0 0-.348 2.793c0 1.165.275 1.995.83 2.489.551.495 1.467.74 2.748.74 1.687 0 3.26-.711 4.714-2.138 1.454-1.425 2.501-3.273 3.142-5.542h3.666c-2.153 6.284-4.918 10.548-8.292 12.787-3.376 2.242-6.72 3.36-10.038 3.36-2.793 0-5.049-.872-6.765-2.617"/>
        <path fill="#FFF" d="M221.139 81.343c-1.658-1.89-2.487-4.233-2.487-7.026 0-1.222.144-2.604.436-4.147.29-1.54.596-3.04.916-4.495.32-1.454.537-2.385.655-2.793.465-2.036.902-4.044 1.309-6.022.406-1.978.61-3.579.61-4.8 0-2.969-1.046-4.453-3.141-4.453-1.514 0-2.852.742-4.015 2.226-1.165 1.484-2.095 3.42-2.794 5.804l-5.935 28.02h-12.57l9.253-43.644h12.57l-.96 4.54c2.909-3.259 6.312-4.889 10.212-4.889 2.967 0 5.324.816 7.07 2.444 1.746 1.63 2.618 4.102 2.618 7.42 0 1.688-.204 3.564-.61 5.63-.408 2.066-.991 4.581-1.746 7.55a151.665 151.665 0 0 0-1.266 5.281c-.38 1.716-.567 3.07-.567 4.058 0 1.165.26 2.067.786 2.706.523.642 1.425.96 2.705.96 1.746 0 3.142-.624 4.19-1.876 1.047-1.25 2.095-3.186 3.142-5.805h3.666c-2.153 6.402-4.641 10.693-7.463 12.874-2.823 2.183-5.747 3.274-8.772 3.274-3.55 0-6.154-.945-7.812-2.837"/>
        <g transform="translate(240 39.478)">
            <mask id="b" fill="#fff">
                <use xlink:href="#a"/>
            </mask>
            <path fill="#FFF" d="M21.725 34.533c1.366-1.135 2.342-2.749 2.924-4.845L29.1 8.565c-.466-2.036-1.658-3.054-3.578-3.054-2.328 0-4.423 1.352-6.285 4.058-1.863 2.706-3.317 5.966-4.365 9.776-1.046 3.812-1.57 7.172-1.57 10.082 0 2.911.421 4.772 1.265 5.586.844.816 1.877 1.222 3.1 1.222 1.337 0 2.69-.567 4.058-1.702M17.84 56.617c.931-1.077 1.66-2.809 2.183-5.193l1.047-5.15c-3.085 1.047-5.47 2.27-7.158 3.665-1.688 1.397-2.53 3.2-2.53 5.412 0 .7.35 1.353 1.048 1.964a3.585 3.585 0 0 0 2.442.916c1.048 0 2.037-.538 2.968-1.614m-8.16 6.721c-2.067-1.776-3.099-4.03-3.099-6.765 0-2.56.64-4.656 1.92-6.284 1.28-1.63 2.938-2.91 4.975-3.84 2.036-.933 4.77-1.92 8.205-2.969l.785-3.666c-3.026 3.26-6.517 4.888-10.473 4.888-3.317 0-6.082-1.135-8.292-3.404S.384 35.48.384 30.65c0-4.305.86-8.83 2.575-13.573C4.675 12.334 7.235 8.318 10.64 5.03 14.043 1.744 18.102.098 22.816.098c2.386 0 4.16.41 5.324 1.223 1.164.816 1.746 1.892 1.746 3.23v.173L30.76.535h12.656L32.766 51.161c-1.164 5.587-3.216 9.456-6.153 11.61C23.673 64.922 20.43 66 16.88 66c-2.735 0-5.135-.889-7.2-2.663" mask="url(#b)"/>
        </g>
        <path fill="#FF78A1" d="M77.78 26.082V0h10.434v2.005h-8.03v22.072h8.03v2.004zM93.309 12.937v6.201c.87.224 1.672.336 2.405.336 1.456 0 2.683-.57 3.679-1.715.995-1.143 1.493-2.708 1.493-4.693 0-1.44-.271-2.525-.814-3.249-.543-.726-1.16-1.088-1.85-1.088-.75 0-1.575.38-2.475 1.14-.902.76-1.714 1.782-2.438 3.068zm0-2.86c.74-1.209 1.625-2.119 2.65-2.73 1.027-.613 1.97-.92 2.832-.92 1.207 0 2.293.522 3.259 1.565.965 1.043 1.448 2.625 1.448 4.746 0 1.672-.321 3.166-.963 4.48-.642 1.315-1.498 2.354-2.567 3.116-1.07.763-2.392 1.145-3.97 1.145-.448 0-1.137-.048-2.07-.143a20.62 20.62 0 0 0-.62-.064v5.611h-2.404V6.83h2.405v3.247zM110.636 1.61c0-.54.184-.943.554-1.21.369-.266.717-.4 1.043-.4.335 0 .686.134 1.055.4.369.267.554.67.554 1.21 0 .533-.185.933-.554 1.198-.37.267-.72.4-1.055.4-.326 0-.674-.133-1.043-.4-.37-.265-.554-.665-.554-1.197zm.388 19.662V8.832h-4.01V6.83h6.415v12.438h4.02v2.005h-6.425zM122.867 21.272V6.83h2.405v3.154c.69-1.11 1.522-1.982 2.496-2.61.974-.63 1.948-.946 2.922-.946a4.19 4.19 0 0 1 2.327.68c.7.452 1.188 1.045 1.468 1.777.28.733.421 2.172.421 4.32v8.068h-2.405v-8.366c0-1.388-.068-2.304-.2-2.748a2.163 2.163 0 0 0-.738-1.093 1.844 1.844 0 0 0-1.17-.427c-.845 0-1.753.402-2.722 1.203-.97.802-1.77 1.806-2.399 3.013v8.418h-2.405zM148.418 15.164V8.963c-.854-.225-1.649-.337-2.383-.337-1.485 0-2.722.574-3.71 1.722-.99 1.148-1.484 2.71-1.484 4.686 0 1.433.27 2.514.81 3.243.54.73 1.155 1.094 1.845 1.094.751 0 1.58-.38 2.487-1.14.907-.758 1.718-1.781 2.435-3.067zm0 2.86c-.733 1.208-1.616 2.119-2.647 2.73-1.032.613-1.979.919-2.842.919-1.208 0-2.294-.522-3.256-1.565-.963-1.043-1.444-2.625-1.444-4.745 0-1.673.32-3.166.958-4.48.638-1.315 1.493-2.354 2.563-3.116 1.07-.764 2.395-1.145 3.975-1.145.457 0 1.146.047 2.066.142.138.017.344.039.62.065h2.412v10.215c0 2.43-.03 3.916-.093 4.454a12.139 12.139 0 0 1-.309 1.636c-.344 1.285-1.13 2.298-2.36 3.039-1.23.74-2.717 1.112-4.46 1.112-1.752 0-3.526-.448-5.32-1.345v-2.431c.681.466 1.521.878 2.518 1.235.997.358 1.962.536 2.893.536.734 0 1.43-.116 2.085-.348.656-.234 1.187-.57 1.592-1.01.406-.44.683-.95.83-1.532.146-.582.22-1.356.22-2.322v-2.043zM163.95 0v26.082h-10.437v-2.004h8.031V2.006h-8.03V0z"/>
    </g>
</svg>
