<svg xmlns="http://www.w3.org/2000/svg" xmlns:xlink="http://www.w3.org/1999/xlink" width="173" height="351" viewBox="0 0 173 351">
    <defs>
        <path id="a" d="M0 .316h32.333V58.72H0z"/>
        <path id="c" d="M.15.542h48.64v10.497H.15z"/>
    </defs>
    <g fill="none" fill-rule="evenodd">
        <path fill="#FF78A1" d="M46.259 0S84.08 2.63 78.525 45.227c-5.554 42.6-9.477 85.34 5.465 94.805 10.575 6.698 25.727-11.033 25.727-11.033l5.113 42.274s-28.022 10.524-43.136-5.4c-17.978-18.944-17.088-51.841-10.17-109.931.097-.8.218-1.61.337-2.403.533-3.46 1.709-15.533-7.835-15.058L46.259 0z"/>
        <path fill="#FF78A1" d="M58.802 4.053C44.65-3.712 16.054-1.223 4.659 19.467c-14.915 27.08 10.751 39.85 10.751 39.85-.984-27.7 18.665-28.31 18.665-28.31l.002-.002a18.72 18.72 0 0 0 6.566 6.015c9.122 5.006 20.58 1.682 25.592-7.422 5.016-9.103 1.688-20.543-7.433-25.545"/>
        <path fill="#EB5E80" d="M65.72 29.665c2.42-4.412 2.867-9.373 1.665-13.884-10.723 22.854-28.234 19.349-42.862 7.836-7.403-5.827-15.74-2.959-22.737 2.217C-6.217 48.55 15.27 59.316 15.27 59.316c-.975-27.638 18.526-28.244 18.526-28.244l.002-.002a18.624 18.624 0 0 0 6.52 6c9.05 4.997 20.426 1.68 25.401-7.405"/>
        <path fill="#504C75" d="M15.335 59.316c-.746-20.991 10.441-26.322 15.798-27.672 1.657-7.926 9.14-11.995 9.14-11.995-11.31-4.63-10.067-13.193-7.858-18.56-10.942 1.91-21.767 7.724-27.778 18.626-14.844 26.911 10.698 39.601 10.698 39.601"/>
        <path fill="#FFF" d="M32.34.544S9.44 16.9 23.756 34.716c-.046.034-.089.075-.136.112a19.608 19.608 0 0 1 7.425-3.677c1.675-7.938 9.227-12.014 9.227-12.014C28.857 14.498 30.11 5.921 32.34.544"/>
        <g transform="translate(0 .544)">
            <mask id="b" fill="#fff">
                <use xlink:href="#a"/>
            </mask>
            <path fill="#504C75" d="M4.625 18.999C-10.18 45.992 15.297 58.72 15.297 58.72c-.476-13.475 3.922-20.51 8.553-24.189C9.7 16.691 32.333.316 32.333.316 21.42 2.233 10.621 8.064 4.625 18.999" mask="url(#b)"/>
        </g>
        <path fill="#FFF" d="M53.343 21.065a8.706 8.706 0 0 1-11.823 3.433 8.706 8.706 0 0 1 8.388-15.256c4.213 2.314 5.752 7.608 3.435 11.823"/>
        <path fill="#FF9205" d="M50.96 19.752a5.985 5.985 0 1 1-2.362-8.127 5.984 5.984 0 0 1 2.361 8.127"/>
        <path fill="#181727" d="M49.018 18.563a4.081 4.081 0 1 1-7.153-3.931 4.081 4.081 0 0 1 7.153 3.93"/>
        <path fill="#FFF" d="M49.287 15.882a1.905 1.905 0 1 1-3.339-1.833 1.905 1.905 0 0 1 3.34 1.833"/>
        <path stroke="#CA3457" stroke-linecap="round" stroke-width="3" d="M140.408 180.67l15.782 78.907M156.735 266.651l-22.857 77.275"/>
        <path fill="#CA3457" d="M162.721 263.93a7.073 7.073 0 0 1-7.073 7.075 7.074 7.074 0 1 1 0-14.15 7.075 7.075 0 0 1 7.073 7.075"/>
        <path fill="#E64C72" d="M157.547 259.96c.755 1.194-.092 3.09-1.894 4.231-1.8 1.141-3.874 1.097-4.627-.1-.758-1.194.09-3.09 1.89-4.23 1.801-1.142 3.875-1.097 4.63.099"/>
        <g transform="translate(88.707 339.572)">
            <mask id="d" fill="#fff">
                <use xlink:href="#c"/>
            </mask>
            <path fill="#CA3457" d="M48.79 11.04s-.782-23.62-48.64 0h48.64z" mask="url(#d)"/>
        </g>
        <path fill="#FF78A1" d="M240 145.981s-53.178 37.954-84.234 37.954c-30.411 0-50.732-12.03-50.732-37.954s21.117-46.94 52.175-46.94c37.905 0 82.791 46.94 82.791 46.94"/>
        <path fill="#EB5E80" d="M235.825 142.033c-13.1 8.791-54.219 34.935-80.06 34.935-29.001 0-48.812-10.906-50.587-34.307a46.47 46.47 0 0 0-.144 3.478c0 25.815 20.321 37.796 50.732 37.796 31.058 0 84.234-37.796 84.234-37.796s-1.505-1.568-4.175-4.106"/>
        <path fill="#E64C72" d="M228.027 129.074s-44.143 29.537-70.685 30.793c-25.99 1.227-43.769-6.63-44.656-25.337-.89-18.708 16.437-34.725 42.98-35.98 32.395-1.531 72.361 30.524 72.361 30.524"/>
        <path fill="#EB5E80" d="M221.497 124.308c-12.495-8.798-41.376-26.917-65.92-25.757-26.488 1.251-43.779 17.21-42.891 35.846.055 1.18.184 2.318.37 3.413 7.169 5.642 29.836 20.391 61.252 10.921l-21.54-10.143s17.28 2.035 31.125 5.206c0 0 12.309-3.082 19.054-8.037 0 0-14.91-13.68-35.268-18.041 0 0 23.08 1.883 40.476 13.56 0 0 7.083-2.596 13.342-6.968"/>
        <path fill="#FF9EC3" d="M155.479 98.55c-24.776 1.17-41.5 15.215-42.826 32.282 7.48 4.898 21.326 12.095 38.93 12.833l-12.9-12.291s17.861-.848 33.17 1.13l6.944-4.1s-5.104-6.074-23.105-12.291c0 0 16.586-3.675 36.145 1.839l8.435-6.62c-13.447-7.098-29.914-13.484-44.793-12.781"/>
    </g>
</svg>
