<svg xmlns="http://www.w3.org/2000/svg" xmlns:xlink="http://www.w3.org/1999/xlink" width="384" height="628" viewBox="0 0 384 628">
    <defs>
        <path id="a" d="M0 .327h121.483v108.712H0z"/>
        <path id="c" d="M0 .825h71.01V107.36H0z"/>
        <path id="e" d="M0 .825h55.14V107.36H0z"/>
        <path id="g" d="M.764.969h87.61V20.08H.764z"/>
        <path id="i" d="M.389.969h87.61V20.08H.388z"/>
    </defs>
    <g fill="none" fill-rule="evenodd">
        <path stroke="#CA3457" stroke-linecap="round" stroke-width="3" d="M158 321l29 142M185.654 474.005v144.61"/>
        <path fill="#FF78A1" d="M82.89.836s65.716 4.13 55.724 80.605C128.622 157.923 37.88 208.63 43.707 241.049c5.827 32.423 51.076-12.752 51.076-12.752l9.192 75.897s-70.26 10.842-91.906-44.023c-21.643-54.865 78.896-98.924 101.054-177.895 0 0 5.717-28.47-16.449-28.783L82.89.836z"/>
        <g>
            <mask id="b" fill="#fff">
                <use xlink:href="#a"/>
            </mask>
            <path fill="#FF78A1" d="M102.414 6.04C76.356-6.557 25.39.546 6.906 38.655c-24.193 49.885 22.947 70.384 22.947 70.384-4.33-49.525 30.79-52.432 30.79-52.432v-.004a33.603 33.603 0 0 0 12.318 10.169c16.796 8.122 37.005 1.111 45.136-15.66 8.134-16.774 1.113-36.95-15.683-45.072" mask="url(#b)"/>
        </g>
        <path fill="#EB5E80" d="M118.098 51.113c3.951-8.152 4.301-17.099 1.714-25.077-17.223 42.02-49.138 37.361-76.593 18.055-13.895-9.768-28.671-3.846-40.808 6.098-12.322 41.52 27.44 58.85 27.44 58.85-4.33-49.524 30.79-52.432 30.79-52.432l.004-.003a33.603 33.603 0 0 0 12.318 10.168c16.796 8.122 37 1.111 45.135-15.66"/>
        <g transform="translate(0 1.68)">
            <mask id="d" fill="#fff">
                <use xlink:href="#c"/>
            </mask>
            <path fill="#504C75" d="M29.851 107.36C26.55 69.593 46.175 58.947 55.688 56.013c2.245-14.44 15.322-22.467 15.322-22.467C50.233 26.256 51.667 10.702 55.143.825 35.634 5.285 16.704 16.77 6.904 36.975c-24.193 49.886 22.947 70.385 22.947 70.385" mask="url(#d)"/>
        </g>
        <path fill="#FFF" d="M55.142 2.504S15.845 34.036 43.024 64.777c-.074.063-.151.144-.229.213a34.842 34.842 0 0 1 12.893-7.297c2.244-14.442 15.321-22.465 15.321-22.465C50.233 27.934 51.67 12.385 55.142 2.504"/>
        <g transform="translate(0 1.68)">
            <mask id="f" fill="#fff">
                <use xlink:href="#e"/>
            </mask>
            <path fill="#504C75" d="M6.906 36.976C-17.287 86.86 29.853 107.36 29.853 107.36c-2.115-24.168 5.164-37.222 13.173-44.262C15.847 32.357 55.14.825 55.14.825 35.632 5.285 16.706 16.77 6.906 36.975" mask="url(#f)"/>
        </g>
        <path fill="#FFF" d="M94.163 36.859c-3.738 7.702-13.015 10.923-20.729 7.19-7.71-3.73-10.935-12.994-7.202-20.693 3.738-7.703 13.018-10.923 20.729-7.191 7.71 3.728 10.935 12.991 7.202 20.694"/>
        <path fill="#FF9205" d="M90.099 34.893c-2.647 5.461-9.226 7.743-14.695 5.1-5.47-2.646-7.755-9.211-5.109-14.676 2.65-5.458 9.23-7.74 14.699-5.094 5.466 2.64 7.751 9.212 5.105 14.67"/>
        <path fill="#181727" d="M86.784 33.29c-1.762 3.632-6.14 5.149-9.775 3.393-3.637-1.759-5.16-6.127-3.398-9.76a7.317 7.317 0 0 1 9.775-3.39c3.637 1.756 5.16 6.128 3.398 9.757"/>
        <path fill="#FFF" d="M87.46 28.456a3.618 3.618 0 0 1-4.831 1.675 3.607 3.607 0 0 1-1.681-4.822 3.62 3.62 0 0 1 4.832-1.681 3.615 3.615 0 0 1 1.68 4.828"/>
        <path fill="#FF78A1" d="M329.262 258.733s-95.593 68.22-151.42 68.22c-54.67 0-91.196-21.625-91.196-68.22 0-46.6 37.96-84.373 93.79-84.373 68.138 0 148.826 84.373 148.826 84.373"/>
        <path fill="#EB5E80" d="M321.66 251.229c-28.137 19.387-98.947 65.224-142.844 67.61-43.484 2.37-76.15-9.654-88.954-38.135 10.01 31.45 42.784 46.25 87.978 46.25 55.831 0 151.424-68.221 151.424-68.221s-2.743-2.86-7.604-7.504"/>
        <path fill="#CA3457" d="M198.36 470.16c0 7.007-5.687 12.685-12.705 12.685s-12.708-5.678-12.708-12.686c0-7.003 5.69-12.685 12.708-12.685s12.705 5.682 12.705 12.685"/>
        <path fill="#E64C72" d="M189.017 463.884c1.313 2.069-.158 5.351-3.287 7.328-3.126 1.976-6.723 1.899-8.039-.173-1.312-2.069.159-5.351 3.284-7.328 3.13-1.976 6.73-1.899 8.042.173"/>
        <g transform="translate(107.886 606.238)">
            <mask id="h" fill="#fff">
                <use xlink:href="#g"/>
            </mask>
            <path fill="#CA3457" d="M88.374 20.083s-1.408-43.007-87.61 0h87.61z" mask="url(#h)"/>
        </g>
        <path stroke="#CA3457" stroke-linecap="round" stroke-width="3" d="M203.112 321.214l28.55 141.774M230.507 474.005v144.61"/>
        <path fill="#CA3457" d="M243.213 470.16c0 7.007-5.688 12.685-12.705 12.685-7.018 0-12.705-5.678-12.705-12.686 0-7.003 5.687-12.685 12.705-12.685 7.017 0 12.705 5.682 12.705 12.685"/>
        <path fill="#E64C72" d="M233.87 463.884c1.312 2.069-.158 5.351-3.284 7.328-3.129 1.976-6.726 1.899-8.038-.173-1.316-2.069.155-5.351 3.284-7.328 3.125-1.976 6.726-1.899 8.038.173"/>
        <g transform="translate(153.114 606.238)">
            <mask id="j" fill="#fff">
                <use xlink:href="#i"/>
            </mask>
            <path fill="#CA3457" d="M87.998 20.083s-1.408-43.007-87.61 0h87.61z" mask="url(#j)"/>
        </g>
        <path fill="#EB5E80" d="M115.719 241.026s55.278-42.003 77.002-119.821c0 0 123.08-13.408 191.266 87.799 0 0-22.575 11.04-58.971-9.2l23.036 14.26s-21.193 15.181-64.5 1.38l22.114 13.098s-26.722 12.642-74.175 0l21.653 12.484s-22.619 10.864-65.215 0l11.773 8.81s-26.527 15.854-83.983-8.81"/>
        <path fill="#E64C72" d="M274.655 130.327l-1.545 2.926s29.18 14.412 58.972 47.229c0 0-29.486 5.825-69.413-15.947l45.456 31.893s-29.792 11.85-76.479-12.17l35.936 26.891s-24.573 4.91-52.828-10.732l30.408 19.322s-30.102 7.051-54.365-2.76l25.185 13.491s-30.135 7.91-59.757-3.253c-6.14-2.311-12.656-4.501-19.147-6.51-12.262 13.407-21.359 20.318-21.359 20.318 57.457 24.665 83.983 8.81 83.983 8.81l-11.772-8.81c42.596 10.864 65.215 0 65.215 0l-21.654-12.483c47.454 12.641 74.175 0 74.175 0l-22.114-13.098c43.307 13.8 64.5-1.38 64.5-1.38l-23.036-14.261c36.397 20.241 58.972 9.2 58.972 9.2-30.732-45.616-72.594-67.903-109.333-78.676"/>
        <path fill="#FF9EC3" d="M192.721 121.206c-21.723 77.819-77.002 119.821-77.002 119.821 6.494 2.786 12.572 5.035 18.281 6.867 17.95-13.355 53.594-47.7 68.466-117.557 0 0 94.487-5.653 162.131 54.327-69.734-74.55-171.876-63.458-171.876-63.458"/>
    </g>
</svg>
